<?xml version="1.0" standalone="no"?>
<!DOCTYPE svg PUBLIC "-//W3C//DTD SVG 20010904//EN"
 "http://www.w3.org/TR/2001/REC-SVG-20010904/DTD/svg10.dtd">
<svg version="1.0" xmlns="http://www.w3.org/2000/svg"
 width="96.000000pt" height="96.000000pt" viewBox="0 0 96.000000 96.000000"
 preserveAspectRatio="xMidYMid meet">
<metadata>
Created by potrace 1.14, written by Peter Selinger 2001-2017
</metadata>
<g transform="translate(0.000000,96.000000) scale(0.100000,-0.100000)"
fill="#000000" stroke="none">
<path d="M267 840 c-20 -22 -40 -40 -45 -40 -5 0 -19 11 -32 25 l-24 25 -28
-27 -28 -27 26 -28 c30 -30 28 -35 -29 -88 l-28 -25 26 -27 c31 -33 31 -39 1
-67 l-24 -23 26 -29 26 -30 73 73 72 72 172 -173 172 -172 -72 -73 -71 -72 29
-28 29 -28 23 26 c28 32 36 32 70 0 l26 -25 20 23 c10 13 29 32 41 42 22 19
23 19 50 -7 l28 -27 27 28 27 28 -25 24 c-14 13 -25 26 -25 30 0 3 16 22 36
43 34 35 36 40 24 62 -7 14 -17 25 -22 25 -15 0 -8 27 12 45 25 23 25 33 -2
62 l-22 24 -72 -72 -73 -73 -172 173 -172 172 72 73 71 72 -29 28 -29 28 -23
-26 c-28 -32 -36 -32 -69 -1 l-26 25 -37 -40z"/>
</g>
</svg>
